<?xml version="1.0" encoding="utf-8"?>
<!-- Generator: Adobe Illustrator 27.5.0, SVG Export Plug-In . SVG Version: 6.00 Build 0)  -->
<svg version="1.1" id="Layer_1" xmlns="http://www.w3.org/2000/svg" xmlns:xlink="http://www.w3.org/1999/xlink" x="0px" y="0px"
	 viewBox="0 0 4000 4000" style="enable-background:new 0 0 4000 4000;" xml:space="preserve">
<g>
	<g>
		<g>
			<rect style="fill:#73D3FF;" width="4000" height="4000"/>
		</g>
	</g>
	<g>
		<g style="opacity:0.2;">
			<g>
				<ellipse style="fill:#000072;" cx="1837.695" cy="3220.819" rx="1107.11" ry="240.45"/>
			</g>
		</g>
		<g>
			<g>
				<g>
					<path style="fill:#FFFFFF;" d="M2433.618,3200.132c-30.965,60.244-308.124,65.993-374.434-16.722
						c-1.055-1.16-1.952-2.374-2.796-3.587c0,0-144.171,121.118-329.014,65.623c0,0-118.692,92.052-434.096-9.707
						c-138.527-44.681-242.079-98.699-311.395-168.753c-70.371-71.004-105.609-158.571-106.612-269.667
						c-0.316-28.54,1.688-58.714,5.961-90.575c1.424-10.55,3.323-21.312,5.803-32.285
						c29.488-132.882,133.146-297.996,276.156-447.969c97.064-101.917,212.327-196.818,334.764-269.985
						c209.425-125.022,440.004-186.268,637.085-109.46c200.352,78.073,275.84,309.549,279.322,523.88
						c0.106,4.747,0.158,9.443,0.158,14.138c0.105,49.745-3.64,98.329-10.603,143.643c0,0-7.491,244.135,10.656,325.532
						c9.232,41.304,22.051,114.049,28.328,183.681C2449.074,3105.443,2449.074,3170.064,2433.618,3200.132z"/>
				</g>
			</g>
			<g>
				<g>
					<path style="fill:#515B72;" d="M2433.623,3200.121c-30.965,60.242-308.124,65.993-374.433-16.722
						c11.131-47.371,7.069-95.744,7.069-95.744l93.793-109.198c213.223-18.516,281.01,57.342,282.856,59.451
						C2449.08,3105.432,2449.08,3170.053,2433.623,3200.121z"/>
				</g>
			</g>
			<g>
				<g>
					<path style="fill:#FFABBC;" d="M1988.487,3140.798c0,0-105.62-558.796,146.58-545.983
						C2357.563,2606.119,2251.305,2974.629,1988.487,3140.798z"/>
				</g>
			</g>
			<g>
				<g style="opacity:0.2;">
					<g>
						<path style="fill:#000072;" d="M2433.644,3200.148c-30.965,60.242-308.124,65.992-374.433-16.723
							c-1.055-1.16-1.952-2.374-2.796-3.587c0,0-144.171,121.119-329.014,65.624c0,0-118.692,92.052-434.096-9.706
							c-138.527-44.681-242.079-98.699-311.395-168.754c-70.371-71.004-105.609-158.572-106.612-269.668
							c2.057-8.599,4.325-17.092,6.805-25.584c4.484,80.183,67.1,151.978,144.54,173.396c77.44,21.417,164.586-5.328,221.505-62.036
							c56.919-56.708,83.981-140.056,78.126-220.187c27.589,13.452,54.967,27.325,82.293,41.094
							c-28.222-24.16-62.406-41.252-99.016-47.74c86.883-75.488,199.508-120.854,314.507-126.657
							c-32.865,79.286-48.901,165.43-46.844,251.205c34.552,12.819,69.791,23.527,106.084,30.649
							c149.657,29.383,310.761-5.275,435.098-93.582c72.639-51.591,132.144-121.118,173.343-200.141
							c24.793-47.582-16.3-102.391-68.894-91.524c-96.8,19.993-202.198,30.965-312.555,30.965
							c-176.666,0-340.777-28.117-476.877-76.174c16.511-5.064,31.651-12.871,44.734-26.956c44.206-47.635,0-230.632,0-315.351
							c0-25.532,8.282-54.334,19.782-82.187h0.053c209.425-125.022,440.004-186.267,637.085-109.46
							c200.352,78.073,275.84,309.548,279.321,523.88c-4.009,1.53-8.177,3.007-12.238,4.536c4.115,3.165,8.282,6.33,12.396,9.601
							c0.106,49.745-3.64,98.33-10.603,143.644c0,0-2.216,72.323-1.319,151.398c-2.585-22.525-5.433-45.261-8.44-68.208
							c-49.798,92.157-99.596,184.315-149.446,276.473c-25.585,47.319-51.222,94.795-71.954,144.435
							c-16.986,40.566-28.644,92.58,1.952,124.125c17.619,18.252,47.213,23.474,70.055,12.502
							c22.842-11.025,37.137-37.454,33.919-62.564c3.534,24.688,20.415,47.108,43.204,57.289
							c22.789,10.181,50.747,7.807,71.479-6.066c21.839-14.613,34.5-39.986,39.353-65.834c4.853-25.796,2.796-52.33,0.739-78.495
							c-2.902-36.399-5.803-72.745-8.863-109.302c7.016,38.984,14.085,86.936,18.305,133.463
							C2449.1,3105.458,2449.1,3170.079,2433.644,3200.148z"/>
					</g>
				</g>
			</g>
			<g>
				<g>
					<path style="fill:#515B72;" d="M1259.227,2133.451c73.747-66.151,154.51-126.71,238.703-176.93
						c-11.5,27.853-19.782,56.656-19.782,82.187c0,84.72,44.206,267.716,0,315.351c-13.082,14.085-28.222,21.892-44.734,26.956
						c-39.247,12.133-86.302,8.862-131.616,37.507c-64.463,40.619-51.222,92.844-94.953,110.146
						c-49.745,19.729-108.511-19.94-152.611,19.677c-44.1,39.669-22.578,100.703-72.323,138.052
						c-25.954,19.413-64.199,5.645-94.848-11.922c31.388-141.375,146.65-319.202,303.904-476.456
						c15.667-15.773,31.81-31.229,48.268-46.422C1245.828,2145.531,1252.475,2139.465,1259.227,2133.451z"/>
				</g>
			</g>
			<g style="opacity:0.2;">
				<g>
					<path style="fill:#000072;" d="M1478.148,2038.708c0,84.72,44.206,267.716,0,315.351
						c-13.082,14.085-28.222,21.892-44.734,26.956c-111.834-39.564-204.73-92.527-270.196-154.51
						c9.073-9.548,18.358-19.044,27.748-28.486c15.72-15.667,31.81-31.176,48.268-46.422c6.594-6.067,13.241-12.133,19.993-18.147
						c73.8-66.045,154.563-126.605,238.703-176.93C1486.43,1984.374,1478.148,2013.176,1478.148,2038.708z"/>
				</g>
			</g>
			<g>
				<g>
					<path style="fill:#515B72;" d="M1497.983,1956.468v0.053h-0.053C1497.93,1956.468,1497.983,1956.468,1497.983,1956.468z"/>
				</g>
			</g>
			<g>
				<g>
					<path style="fill:#000072;" d="M1558.813,3304.685c-68.267,0-157.813-12.031-272.007-48.872
						c-146.028-47.104-250.674-104.018-319.917-173.999c-93.135-93.965-127.996-217.573-106.565-377.881
						c1.553-11.509,3.616-22.983,6.138-34.141c25.007-112.651,101.35-248.984,214.951-383.804
						c115.195-136.714,259.287-260.166,405.732-347.612c112.896-67.397,223.894-112.144,329.915-133.003
						c118.704-23.35,228.269-15.952,325.649,22.002c252.371,98.33,323.186,433.169,282.271,703.223
						c-0.54,18.945-6.516,244.077,10.195,319.038c9.236,41.323,22.307,114.941,28.748,186.377
						c7.9,86.441,4.128,143.286-11.533,173.755v-0.005c-18.42,35.84-80.449,49.229-129.243,54.146
						c-78.906,7.949-210.459-1.123-269.519-55.674c-34.023,23.706-117.934,73.003-227.058,73.013
						c-30.195,0-62.309-3.774-95.847-12.905C1710.17,3280.242,1656.103,3304.685,1558.813,3304.685z M1949.243,1834.778
						c-134.5,0-285.53,47.344-440.464,139.834c-287.515,171.684-551.565,481.099-601.138,704.409
						c-2.263,10.025-4.106,20.269-5.491,30.532c-19.849,148.476,10.249,257.334,94.726,342.568
						c64.38,65.063,163.45,118.55,302.886,163.525c298.081,96.167,413.718,13.828,414.851,12.988
						c5.351-3.979,12.444-5.337,18.833-3.408c171.228,51.411,308.039-60.454,309.402-61.597c4.541-3.789,10.483-5.488,16.333-4.722
						c5.859,0.786,11.135,3.984,14.519,8.833c0.339,0.483,0.674,0.991,1.099,1.46c0.295,0.327,0.581,0.659,0.857,1.001
						c35.398,44.156,151.497,60.967,243.257,51.719c61.731-6.226,91.199-22.217,95.942-31.445c0-0.005,0-0.005,0-0.005
						c6.599-12.832,16.287-49.473,7.039-150.645c-6.26-69.438-18.945-140.898-27.908-180.996
						c-18.513-83.042-11.462-320.708-11.152-330.786c0.027-0.85,0.105-1.699,0.232-2.539
						c38.875-254.18-24.553-568.76-255.679-658.808C2072.597,1845.345,2012.751,1834.778,1949.243,1834.778z"/>
				</g>
			</g>
			<g>
				<g>
					<path style="fill:#FFFFFF;" d="M2002.482,2548.371c0,0-31.81,188.852,0,307.544c12.871,48.005,29.436,92.105,42.412,134.94
						c19.202,63.038,30.702,123.281,11.5,188.957c0,0-144.171,121.12-329.014,65.624c0,0-52.699-47.213-97.01-191.226
						c-14.402-46.897-27.958-104.027-38.509-173.185c-28.592-187.428,42.254-381.186,42.254-381.186"/>
				</g>
			</g>
			<g>
				<g>
					<path style="fill:#000072;" d="M1826.567,3281.248c-33.01,0-68.306-4.507-105.254-15.601c-2.969-0.893-5.706-2.427-8.015-4.492
						c-2.329-2.09-57.583-52.832-103.096-200.737c-16.245-52.905-29.434-112.188-39.202-176.211
						c-29.072-190.586,40.33-383.496,43.298-391.616c4.001-10.943,16.113-16.563,27.053-12.569
						c10.942,3.994,16.575,16.108,12.585,27.051c-0.691,1.89-68.623,191.113-41.218,370.767
						c9.458,61.992,22.183,119.248,37.822,170.176c35.623,115.777,76.755,166.372,88.044,178.711
						c151.265,42.734,273.762-40.127,299.333-59.263c14.783-56.558,5.427-109.277-13.21-170.464
						c-4.968-16.402-10.405-32.793-16.16-50.142c-9.055-27.3-18.416-55.528-26.448-85.479
						c-32.625-121.729-1.758-308.618-0.427-316.513c1.936-11.49,12.847-19.229,24.309-17.3
						c11.492,1.934,19.238,12.817,17.307,24.306c-0.31,1.846-30.659,185.777-0.427,298.579c7.712,28.765,16.877,56.396,25.742,83.12
						c5.842,17.617,11.362,34.263,16.484,51.162c18.63,61.172,32.932,127.881,11.558,201.001c-1.169,3.994-3.494,7.554-6.682,10.234
						C2064.916,3200.213,1966.467,3281.248,1826.567,3281.248z"/>
				</g>
			</g>
			<g>
				<g>
					<path style="fill:#515B72;" d="M2056.394,3179.811c0,0-144.171,121.12-329.014,65.624c0,0-52.699-47.213-97.01-191.226
						c145.542-117.109,414.419-63.514,414.419-63.514l0.105,0.158C2064.096,3053.893,2075.596,3114.135,2056.394,3179.811z"/>
				</g>
			</g>
			<g style="opacity:0.6;">
				<g>
					<path style="fill:#FFFFFF;" d="M1738.288,2998.329c77.582-19.75,158.562-26.077,238.269-18.616
						c14.966,1.401,30.406,3.456,43.248,11.269c21.629,13.159,31.168,39.714,34.371,64.828s1.707,50.962,8.494,75.353
						c-5.676-43.22-17.089-87.091-55.819-107.094c-38.73-20.004-115.164-11.181-158.531-6.771s-87.536,15.96-115.769,23.147
						C1733.587,3026.443,1734.624,3012.441,1738.288,2998.329z"/>
				</g>
			</g>
			<g style="opacity:0.6118;">
				<g>
					<path style="fill:#FFFFFF;" d="M2152.939,2984.226c95.624-25.462,201.998-7.142,283.038,49.654
						c3.072,34.203,0.85,68.875-6.562,102.406c-7.854-31.369-4.466-62.538-30.011-82.365
						c-56.448-43.813-179.09-52.042-260.677-59.933C2144.091,2991.152,2149.454,2988.317,2152.939,2984.226z"/>
				</g>
			</g>
			<g>
				<g>
					<path style="fill:#000072;" d="M1826.569,3281.248c-33.013,0-68.308-4.507-105.256-15.601
						c-2.969-0.893-5.706-2.427-8.015-4.492c-2.329-2.09-57.583-52.832-103.096-200.737c-2.539-8.257,0.21-17.231,6.941-22.646
						c151.479-121.89,420.396-70.029,431.772-67.769c5.466,1.089,10.281,4.297,13.389,8.926c1.162,1.728,2.168,3.779,2.776,5.776
						c18.64,61.201,32.942,127.91,11.567,201.03c-1.169,3.994-3.494,7.554-6.682,10.234
						C2064.916,3200.213,1966.467,3281.248,1826.569,3281.248z M1738.586,3226.726c150.649,42.534,273.662-40.2,299.343-59.297
						c13.772-52.729,6.568-102.114-9.575-158.145c-51.553-8.11-252.681-32.744-373.367,52.764
						C1689.516,3167.898,1727.76,3214.896,1738.586,3226.726z M2056.393,3179.813h0.049H2056.393z"/>
				</g>
			</g>
			<g>
				<g>
					<path style="fill:#000072;" d="M1891.859,3237.679c0.101-0.074,0.384-0.957,0.6-1.532c0.234-0.596,0.449-1.396,0.677-2.087
						c0.469-1.403,0.872-2.933,1.289-4.447c0.835-3.022,1.566-6.187,2.237-9.357c1.298-6.375,2.447-12.899,3.146-19.524
						c1.545-13.237,2.069-26.774,1.671-40.394c-0.674-13.581-1.728-27.337-4.246-40.932c-0.929-6.877-2.722-13.567-4.093-20.408
						c-1.584-6.777-3.592-13.458-5.381-20.248l-0.118-0.448c-0.905-3.434,1.146-6.951,4.579-7.856
						c3.068-0.808,6.203,0.745,7.481,3.534c3.021,6.578,6.278,13.112,9.13,19.828c2.64,6.788,5.713,13.484,7.937,20.478
						c5.101,13.803,8.779,28.141,12.035,42.685c2.981,14.6,5.006,29.508,5.859,44.68c0.498,7.583,0.509,15.242,0.284,22.99
						c-0.14,3.885-0.349,7.769-0.726,11.746c-0.188,1.986-0.361,3.962-0.654,6.03c-0.147,1.046-0.236,1.997-0.435,3.124
						c-0.2,1.152-0.297,2.005-0.669,3.643l-2.998,13.199c-2.938,12.937-15.807,21.041-28.743,18.103
						c-12.936-2.939-21.041-15.807-18.103-28.743C1883.95,3245.876,1887.359,3240.979,1891.859,3237.679z"/>
				</g>
			</g>
			<g style="opacity:0.2;">
				<g>
					<path style="fill:#000072;" d="M1637.974,2496.412c-8.443,67.344-16.9,135.327-10.626,202.908
						c6.273,67.58,28.573,135.666,74.559,185.584c21.98,23.86,49.278,43.228,80.023,53.581
						c77.825,26.206,172.279-15.865,204.856-91.245c14.502,44.931,29.005,89.863,43.507,134.794
						c-67.528-11.241-136.822-11.804-204.524-1.664c-14.597,2.186-29.497,5.005-42.115,12.663
						c-20.817,12.636-32.246,36.649-37.071,60.517c-7.075,34.993-1.439,73.766,21.029,101.509
						c22.469,27.743,63.347,41.299,95.934,26.719c32.588-14.58,49.245-59.728,29.346-89.369
						c20.751,33.19,70.844,39.504,104.019,18.731c33.176-20.774,49.697-61.803,49.435-100.945
						c9.282,27.603,18.63,55.512,21.318,84.51c2.687,28.998-1.867,59.624-18.396,83.601c-17.456,25.323-46.077,40.511-74.684,51.808
						c-91.704,36.216-195.277,41.604-290.244,15.1c-27.921-7.793-56.325-19.092-75.118-41.164
						c-18.128-21.29-24.949-49.777-29.839-77.309c-22.786-128.28-15.909-259.915-3.572-389.618
						C1583.561,2655.653,1594.32,2571.661,1637.974,2496.412z"/>
				</g>
			</g>
			<g>
				<g>
					<path style="fill:#000072;" d="M2062.57,3085.662c-6.482,0-12.876-2.979-17.014-8.599c-6.904-9.385-4.895-22.593,4.492-29.502
						c254.797-187.47,332.542-520.186,333.296-523.525c2.573-11.362,13.882-18.501,25.237-15.923
						c11.367,2.573,18.496,13.872,15.925,25.239c-3.228,14.258-82.1,351.499-349.448,548.203
						C2071.293,3084.324,2066.911,3085.662,2062.57,3085.662z"/>
				</g>
			</g>
			<g>
				<g>
					<path style="fill:#000072;" d="M2270.461,3266.414c-82.356,0-185.466-17.09-227.734-69.814
						c-4.058-5.064-5.562-11.709-4.077-18.023c10.188-43.359,6.619-88.721,6.582-89.175c-0.461-5.625,1.345-11.216,5.022-15.498
						l93.792-109.199c3.594-4.184,8.684-6.792,14.18-7.271c218.857-19.004,292.847,57.759,300.562,66.577
						c2.932,3.349,4.729,7.544,5.134,11.977c7.903,86.465,4.131,143.311-11.531,173.779c-18.42,35.835-80.449,49.224-129.243,54.141
						C2307.36,3265.501,2289.46,3266.414,2270.461,3266.414z M2082.092,3177.132c41.45,38.97,150.01,53.545,236.821,44.79
						c61.731-6.226,91.199-22.217,95.942-31.445c0-0.005,0-0.005,0-0.005c6.423-12.495,15.774-47.544,7.734-142.739
						c-17.231-14.419-87.065-61.533-252.183-48.95l-82.603,96.172C2088.42,3110.286,2088.642,3142.898,2082.092,3177.132z"/>
				</g>
			</g>
			<g>
				<g>
					<path style="fill:#000072;" d="M2251.802,3228.061c0.93-1.86,2.247-5.018,3.273-7.761c1.113-2.836,2.098-5.781,3.096-8.731
						c1.951-5.925,3.614-11.998,5.118-18.136c2.975-12.29,4.81-24.899,5.665-37.588c0.6-6.365,0.428-12.706,0.531-19.116
						c-0.454-6.324-0.423-12.798-1.443-19.101c-1.213-12.809-4.55-25.241-8.265-37.678l-0.184-0.616
						c-1.455-4.872,1.314-10.001,6.186-11.456c4.425-1.321,9.062,0.844,10.966,4.903c6.042,12.845,11.739,26.146,15.2,40.121
						c2.15,6.91,3.216,14.019,4.743,21.107c0.964,7.128,2.177,14.304,2.575,21.52c1.144,14.429,1.162,28.999-0.154,43.508
						c-0.676,7.254-1.559,14.513-2.813,21.775c-0.653,3.63-1.309,7.269-2.146,10.931c-0.838,3.779-1.615,7.08-3.007,11.592
						l-0.137,0.443c-3.45,11.183-15.312,17.451-26.495,14.001c-11.183-3.45-17.451-15.312-14.001-26.495
						C2250.846,3230.197,2251.316,3229.051,2251.802,3228.061z"/>
				</g>
			</g>
			<g>
				<g>
					<path style="fill:#FFFFFF;" d="M1727.375,3245.447c0,0-3.956,3.06-12.344,7.49c-1.688,0.845-3.534,1.794-5.592,2.743
						c-6.383,3.06-14.559,6.541-24.688,9.918c-1.16,0.368-2.374,0.791-3.587,1.16c-1.688,0.527-3.376,1.108-5.17,1.634
						c-15.456,4.643-34.711,8.969-58.027,11.818c-2.69,0.317-5.434,0.632-8.282,0.896c-2.215,0.264-4.484,0.474-6.805,0.634
						c-7.702,0.685-15.773,1.213-24.319,1.529c-2.69,0.106-5.38,0.211-8.177,0.264c-5.75,0.105-11.658,0.105-17.777,0.053
						c-2.005,0-4.062-0.053-6.067-0.105c-1.477,0-2.954-0.053-4.431-0.106c-2.849-0.053-5.75-0.158-8.704-0.316
						c-11.236-0.475-23-1.267-35.396-2.48c-2.216-0.211-4.431-0.421-6.7-0.685c-1.53-0.158-3.113-0.317-4.695-0.528
						c-3.376-0.368-6.805-0.791-10.234-1.213c-10.339-1.319-21.048-2.9-32.126-4.747c-3.06-0.475-6.067-1.002-9.179-1.583
						c-0.739-0.158-1.477-0.264-2.216-0.422c-3.693-0.632-7.491-1.372-11.289-2.11c-38.562-7.492-81.238-18.357-128.292-33.551
						c-138.527-44.681-242.079-98.699-311.395-168.753l54.704-119.43l115.949-253.262c71.163-29.119,128.715-29.014,174.398-14.56
						c106.77,33.709,148.919,145.701,148.919,145.701s1.055-0.581,3.007-1.635c25.637-13.294,82.979-23.159,137.788-5.434
						c34.552,11.183,68.155,33.391,92.052,72.639C1772.003,2994.98,1727.375,3245.447,1727.375,3245.447z"/>
				</g>
			</g>
			<g>
				<g>
					<path style="fill:#000072;" d="M1558.884,3304.734c-23.782,0-48.706-1.455-74.468-4.36c-0.41-0.044-0.815-0.103-1.221-0.171
						c-60.425-6.88-126.494-21.811-196.396-44.394c-146.021-47.1-250.667-104.014-319.91-173.99
						c-8.196-8.286-8.125-21.646,0.159-29.844c8.284-8.188,21.638-8.13,29.841,0.156c64.368,65.054,163.44,118.54,302.873,163.516
						c67.642,21.851,131.299,36.23,189.214,42.74l0,0c0.388,0.044,0.774,0.097,1.157,0.161c34.937,3.892,68.076,4.937,98.518,3.12
						c67.256-4.028,105.229-21.152,119.441-29.033c7.038-45.103,34.519-245.376-17.41-330.669
						c-18.855-30.967-45.947-52.344-80.525-63.535c-48.293-15.62-100.171-7.012-121.58,4.092l-2.539,1.382
						c-5.366,2.959-11.748,3.433-17.49,1.313c-5.742-2.124-10.283-6.631-12.439-12.363c-0.329-0.865-35.334-90.64-118.228-126.573
						c-51.24-22.212-110.908-19.682-177.341,7.529c-10.784,4.419-23.11-0.747-27.524-11.528
						c-4.417-10.786,0.745-23.106,11.528-27.525c77.534-31.758,148.369-34.121,210.542-7.012
						c73.811,32.173,114.619,97.104,131.384,130.122c35.578-11.943,88.501-15.166,136.675,0.41
						c43.845,14.189,79.663,42.456,103.582,81.743c66.687,109.531,23.306,358.57,21.426,369.116
						c-0.918,5.146-3.713,9.771-7.847,12.974c-1.868,1.45-46.946,35.556-149.136,41.684
						C1580.678,3304.422,1569.902,3304.734,1558.884,3304.734z"/>
				</g>
			</g>
			<g>
				<g>
					<path style="fill:#515B72;" d="M1727.38,3245.435c0,0-40.619,31.493-137.472,37.296c-29.119,1.74-63.355,1.159-103.13-3.324
						c-0.053-0.053-0.105-0.053-0.158-0.053c-74.538-17.461-157.721-79.211-149.235-233.533
						c8.854-161.032,138.474-220.398,138.474-220.398s1.055-0.58,3.007-1.634c25.637-13.294,82.979-23.159,137.788-5.435
						c34.553,11.184,68.156,33.393,92.052,72.64C1772.009,2994.969,1727.38,3245.435,1727.38,3245.435z"/>
				</g>
			</g>
			<g style="opacity:0.2;">
				<g>
					<path style="fill:#000072;" d="M1727.375,3245.447c0,0-3.956,3.06-12.344,7.49c-1.688,0.845-3.534,1.794-5.592,2.743
						c-6.383,3.06-14.559,6.541-24.688,9.918c-1.16,0.368-2.374,0.791-3.587,1.16c-1.688,0.527-3.376,1.108-5.17,1.634
						c-15.456,4.643-34.711,8.969-58.027,11.818c-2.69,0.317-5.434,0.632-8.282,0.896c-2.215,0.264-4.484,0.474-6.805,0.634
						c-7.702,0.685-15.773,1.213-24.319,1.529c-2.69,0.106-5.38,0.211-8.177,0.264c-5.75,0.105-11.658,0.105-17.777,0.053
						c-2.005,0-4.062-0.053-6.067-0.105c-1.477,0-2.954-0.053-4.431-0.106c-2.849-0.053-5.75-0.158-8.704-0.316
						c-11.236-0.475-23-1.267-35.396-2.48c-2.216-0.211-4.431-0.421-6.7-0.685c-1.53-0.158-3.113-0.317-4.695-0.528
						c-3.376-0.368-6.805-0.791-10.234-1.213c-10.339-1.319-21.048-2.9-32.126-4.747c-3.06-0.475-6.067-1.002-9.179-1.583
						c-0.739-0.158-1.477-0.264-2.216-0.422c-3.693-0.632-7.491-1.372-11.289-2.11c-38.562-7.492-81.238-18.357-128.292-33.551
						c-138.527-44.681-242.079-98.699-311.395-168.753l54.704-119.43c74.855,16.669,157.043-10.182,211.535-64.463
						c52.963-52.752,80.078-128.557,78.812-203.359c106.77,33.709,148.919,145.701,148.919,145.701s1.055-0.581,3.007-1.635
						c7.227-3.745,16.933-7.228,28.433-9.865c-55.231,19.519-103.921,57.499-135.361,106.981
						c-21.154,33.34-34.764,74.855-22.472,112.362c11.975,36.504,45.261,61.087,76.649,83.243
						c-6.91-39.722-2.479-81.29,12.66-118.639c-4.484,45.577,20.31,91.471,58.027,117.426
						c37.718,25.953,86.566,33.128,131.616,24.74c29.541-5.539,58.66-17.937,79.339-39.775
						c19.888-20.89,30.069-48.163,33.603-76.966C1747.948,3129.973,1727.375,3245.447,1727.375,3245.447z"/>
				</g>
			</g>
			<g style="opacity:0.6;">
				<g>
					<path style="fill:#FFFFFF;" d="M1344.455,3083.76c14.893-96.001,78.496-183.15,165.382-226.609
						c-54.197,58.734-84.885,138.582-83.974,218.496c18.416-63.316,53.258-121.778,100.184-168.103
						c21.532-21.256,47.316-40.739,77.396-43.996c31.37-3.397,62.548,11.889,84.998,34.061
						c22.45,22.172,37.475,50.648,51.002,79.154c6.769-74.557-50.609-146.786-122.919-166.171
						c-72.31-19.385-152.736,9.553-204.037,64.076S1337.25,3005.785,1344.455,3083.76z"/>
				</g>
			</g>
			<g>
				<g>
					<path style="fill:#000072;" d="M1558.884,3304.734c-23.782,0-48.708-1.455-74.468-4.36c-1.113-0.122-2.207-0.337-3.274-0.635
						c-53.643-12.739-175.386-62.983-164.827-255.073c9.194-167.212,137.869-232.305,150.027-238.086l2.498-1.353
						c33.704-17.485,97.314-25.385,154.307-6.953c43.848,14.194,79.663,42.461,103.582,81.748
						c66.687,109.531,23.306,358.57,21.426,369.116c-0.918,5.146-3.713,9.771-7.847,12.974
						c-1.868,1.45-46.946,35.556-149.136,41.684C1580.676,3304.422,1569.904,3304.734,1558.884,3304.734z M1490.522,3258.592
						c34.79,3.857,67.8,4.888,98.13,3.076c67.571-4.048,105.398-21.167,119.431-28.984c7.029-44.99,34.548-245.391-17.4-330.718
						c-18.855-30.967-45.947-52.344-80.527-63.54c-48.298-15.61-100.169-7.002-121.575,4.097l-2.607,1.416
						c-0.434,0.239-0.879,0.464-1.328,0.669c-4.763,2.217-118.181,56.68-126.191,202.373
						C1349.97,3201.306,1437.109,3245.813,1490.522,3258.592z M1727.38,3245.438h0.049H1727.38z"/>
				</g>
			</g>
			<g>
				<g>
					<path style="fill:#000072;" d="M1589.909,3303.831c-0.784,0-1.565-0.039-2.344-0.127
						c-83.306-9.312-180.81-77.51-181.445-239.073c-0.281-72.051,25.076-140.396,71.404-192.446
						c39.675-44.58,92.083-73.135,137.139-74.824c2.82-0.288,5.706,0.01,8.491,0.918c43.84,14.189,79.656,42.456,103.574,81.743
						c66.687,109.531,23.306,358.57,21.426,369.116c-0.918,5.146-3.713,9.771-7.844,12.974c-1.87,1.45-46.948,35.556-149.138,41.684
						C1590.751,3303.821,1590.329,3303.831,1589.909,3303.831z M1613.808,2839.656c-67.507,4.492-165.996,94.278-165.486,224.81
						c0.52,132.627,76.501,188.916,142.175,197.09c66.104-4.233,103.516-21.113,117.595-28.921
						c7.038-45.103,34.519-245.376-17.41-330.669C1672.497,2872.102,1646.645,2851.15,1613.808,2839.656z M1727.38,3245.438h0.049
						H1727.38z"/>
				</g>
			</g>
			<g>
				<g>
					<path style="fill:#FFFFFF;" d="M1363.492,3342.246c-0.053,9.127-0.422,18.463-1.214,28.012c0,0-46.949-67.786-110.251-70.053
						c-63.302-2.269-106.19,122.067-270.143-29.383c0,0-68.736,7.596-131.036-8.546c-55.495-14.348-105.873-47.53-98.435-121.488
						c6.541-64.727,69.949-102.602,119.008-122.437c31.915-12.924,57.711-18.199,57.711-18.199s37.454,58.502,76.543,89.046
						c0,0-144.751,28.959-153.825,66.836c-8.282,34.921,117.321,33.866,137.472,33.444c1.741,0,2.69-0.052,2.69-0.052
						s0,0,0.053-0.054c2.057-3.059,71.69-105.24,180.834-94.478C1277.19,3105.127,1364.494,3195.859,1363.492,3342.246z"/>
				</g>
			</g>
			<g>
				<g>
					<path style="fill:#000072;" d="M1362.285,3391.35c-6.795,0-13.313-3.291-17.322-9.053l0,0
						c-0.413-0.591-41.931-59.165-93.684-61.016c-11.924-0.596-25.408,7.52-41.035,16.729
						c-47.239,27.832-111.606,65.762-235.732-45.39c-34.57,2.466-151.089,5.938-209.626-52.041
						c-26.382-26.123-37.639-60.415-33.459-101.919c12.178-120.889,186.101-157.69,193.498-159.194
						c8.55-1.743,17.275,1.953,21.98,9.292c0.356,0.552,36.042,55.884,71.768,83.799c6.497,5.073,9.441,13.472,7.539,21.494
						c-1.902,8.022-8.303,14.199-16.387,15.821c-59.336,11.894-118.562,33.062-134.128,47.202
						c15.964,7.1,60.266,11.953,105.537,11.46c21.267-27.207,91.431-104.751,193.743-94.654
						c114.487,11.235,222.822,117.222,208.342,298.052c-0.711,8.892-6.936,16.372-15.549,18.691
						C1365.949,3391.111,1364.108,3391.35,1362.285,3391.35z M981.877,3249.71c5.281,0,10.413,1.978,14.331,5.601
						c105.64,97.578,149.854,71.543,192.612,46.343c19.541-11.509,39.739-23.296,63.97-22.549
						c35.969,1.289,66.758,19.751,88.997,38.525c-8.213-127.5-90.005-193.809-170.942-201.748
						c-96.375-9.59-158.657,81.377-161.262,85.254c-0.759,1.128-1.626,2.183-2.59,3.145c-3.799,3.799-8.96,6.06-14.331,6.221
						c-38.23,1.157-129.788,0.601-154.426-29.634c-6.978-8.559-9.429-19.116-6.904-29.727c5.842-24.394,34.951-43.76,94.394-62.837
						c12.927-4.146,25.654-7.729,36.88-10.664c-18.152-19.556-33.623-40.488-42.69-53.462
						c-37.173,10.229-139.06,44.864-146.502,118.711c-2.876,28.579,4.033,50.713,21.126,67.666
						c44.321,43.955,148.611,43.257,185.046,39.277C980.351,3249.749,981.115,3249.71,981.877,3249.71z"/>
				</g>
			</g>
			<g>
				<g>
					<path style="fill:#515B72;" d="M1362.284,3370.246c0,0-46.949-67.787-110.252-70.055
						c-63.302-2.268-106.19,122.069-270.142-29.383c-3.376-65.57,10.128-81.396,10.128-81.396s0,0,0.053-0.053
						c2.057-3.06,71.69-105.24,180.833-94.478C1283.684,3105.748,1375.314,3207.506,1362.284,3370.246z"/>
				</g>
			</g>
			<g style="opacity:0.6;">
				<g>
					<path style="fill:#FFFFFF;" d="M989.989,3229.739c25.041-35.188,58.533-65.097,98.429-81.637
						c39.896-16.541,86.416-18.836,126.16-1.934c29.848,12.693,54.547,35.309,74.909,60.556
						c35.192,43.635,59.014,96.361,68.499,151.61c3.111-61.367-8.345-124.71-40.911-176.817
						c-32.566-52.106-87.913-91.553-149.133-96.819c-42.705-3.673-86.635,9.561-120.205,36.213
						C1014.168,3147.563,991.317,3187.348,989.989,3229.739z"/>
				</g>
			</g>
			<g>
				<g>
					<path style="fill:#000072;" d="M1362.285,3391.35c-6.795,0-13.313-3.291-17.322-9.053l0,0
						c-0.413-0.591-41.931-59.165-93.684-61.016c-11.924-0.596-25.408,7.52-41.035,16.729
						c-48.108,28.35-113.989,67.163-242.673-51.704c-4.045-3.735-6.47-8.911-6.753-14.414c-3.281-63.73,8.315-87.349,14.333-95.166
						c7.891-11.377,82.82-114.419,199.824-102.847c114.487,11.235,222.822,117.222,208.342,298.052
						c-0.711,8.892-6.936,16.372-15.549,18.691C1365.949,3391.111,1364.108,3391.35,1362.285,3391.35z M1002.612,3261.14
						c101.042,90.689,144.321,65.19,186.208,40.513c19.541-11.509,39.739-23.296,63.97-22.549
						c35.969,1.289,66.758,19.751,88.997,38.525c-8.213-127.5-90.005-193.809-170.942-201.748
						c-96.375-9.59-158.657,81.377-161.262,85.254c-0.159,0.235-0.322,0.469-0.491,0.698
						C1008.058,3203.875,1001.344,3218.875,1002.612,3261.14z M1008.095,3203.089c-0.225,0.264-0.456,0.522-0.696,0.771
						C1007.809,3203.435,1008.307,3202.903,1008.095,3203.089z M1008.071,3203.108L1008.071,3203.108L1008.071,3203.108z
						 M1008.94,3202.034c-0.266,0.356-0.547,0.708-0.837,1.045C1008.202,3202.986,1008.52,3202.674,1008.94,3202.034z"/>
				</g>
			</g>
			<g>
				<g>
					<path style="fill:#F9E3D2;" d="M1752.801,855.151c-69.527,101.705-250.941,100.018-250.941,100.018
						c-10.023-68.526-5.17-123.65,8.124-167.804c24.319-81.08,77.018-125.339,117.901-148.445c3.904-2.215,7.966-3.428,12.027-3.798
						c16.828-1.529,33.023,11.499,33.128,29.963c0.264,37.56,17.092,74.803,39.089,105.241
						C1747.104,818.91,1752.801,855.151,1752.801,855.151z"/>
				</g>
			</g>
			<g>
				<g>
					<path style="fill:#F9E3D2;" d="M2324.052,955.169c0,0-110.199,1.002-191.701-46.686c-23.105-13.505-43.889-30.912-59.24-53.332
						c0,0,5.697-36.241,40.725-84.826c21.945-30.438,38.772-67.681,39.036-105.241c0.106-15.033,10.867-26.427,23.897-29.329
						c6.858-1.53,14.348-0.738,21.259,3.164c36.452,20.574,82.188,57.922,108.933,123.176
						c11.289,27.378,19.202,59.663,21.575,97.697C2330.435,888.278,2329.222,919.93,2324.052,955.169z"/>
				</g>
			</g>
			<g>
				<g>
					<path style="fill:#39005E;" d="M1502.809,976.277c-0.537,0-0.923,0-1.157-0.005c-10.398-0.098-19.177-7.754-20.681-18.047
						c-30.625-209.482,72.419-301.484,136.568-337.681c15.976-9.014,35.029-8.887,50.969,0.347
						c15.942,9.238,25.532,25.713,25.657,44.072c0.195,28.916,12.644,61.958,35.056,93.047
						c37.522,52.046,44.16,92.163,44.424,93.848c0.835,5.308-0.391,10.737-3.423,15.176
						C1697.431,973.562,1520.414,976.277,1502.809,976.277z M1642.67,656.096c-1.335,0-2.827,0.317-4.392,1.206
						c-64.436,36.357-135.801,113.623-117.949,276.113c44.165-2.651,156.87-15.991,209.639-82.832
						c-3.601-12.197-12.949-37.334-34.981-67.896c-19.448-26.973-42.698-69.248-43.025-117.441
						c-0.029-4.512-2.903-6.851-4.614-7.842C1646.325,656.814,1644.672,656.096,1642.67,656.096z"/>
				</g>
			</g>
			<g>
				<g>
					<path style="fill:#39005E;" d="M2323.11,976.277c-17.585,0-194.614-2.71-267.41-109.243c-3.032-4.438-4.258-9.868-3.423-15.176
						c0.264-1.685,6.902-41.797,44.421-93.848c22.412-31.089,34.863-64.136,35.056-93.047c0.125-18.359,9.719-34.834,25.662-44.072
						c15.935-9.233,34.985-9.36,50.967-0.347c64.148,36.196,167.192,128.198,136.565,337.681
						c-1.504,10.293-10.283,17.949-20.681,18.047C2324.035,976.277,2323.647,976.277,2323.11,976.277z M2095.954,850.584
						c52.764,66.836,165.457,80.181,209.636,82.832c17.854-162.49-53.511-239.756-117.947-276.113
						c-3.916-2.212-7.366-0.884-9.07,0.102c-1.711,0.991-4.587,3.33-4.617,7.842c-0.325,48.189-23.577,90.464-43.025,117.441
						C2108.903,813.25,2099.555,838.387,2095.954,850.584z"/>
				</g>
			</g>
			<g style="opacity:0.2;">
				<g style="opacity:0.2;">
					<g>
						<path style="fill:#000072;" d="M2328.536,859.793c-9.654,10.762-21.628,19.676-34.5,26.27
							c-26.112,13.399-55.653,18.569-84.93,21.365c-25.479,2.479-51.275,3.27-76.754,1.055
							c-23.105-13.505-43.889-30.912-59.24-53.332c0,0,5.697-36.241,40.725-84.826c21.945-30.438,38.772-67.681,39.036-105.241
							c0.106-15.033,10.867-26.427,23.897-29.329c6.225,18.779,9.073,38.666,8.124,58.448c-0.792,16.459-4.062,33.287,0.633,49.06
							c6.488,22.05,28.064,37.349,50.747,41.305c25.321,4.379,52.225-4.694,70.688-22.472
							C2318.25,789.474,2326.162,821.759,2328.536,859.793z"/>
					</g>
				</g>
				<g style="opacity:0.2;">
					<g>
						<path style="fill:#000072;" d="M1752.801,855.151c-69.527,101.705-250.941,100.018-250.941,100.018
							c-10.023-68.526-5.17-123.65,8.124-167.804c6.436,8.809,14.454,16.037,24.583,20.204
							c31.335,12.766,67.364-11.395,81.818-41.99c14.401-30.598,13.979-65.73,17.83-99.332c1.213-10.288,3.007-20.89,5.697-31.124
							c16.828-1.529,33.023,11.499,33.128,29.963c0.264,37.56,17.092,74.803,39.089,105.241
							C1747.104,818.91,1752.801,855.151,1752.801,855.151z"/>
					</g>
				</g>
			</g>
			<g>
				<g>
					<path style="fill:#000072;" d="M1502.809,976.277c-0.537,0-0.923,0-1.157-0.005c-10.398-0.098-19.177-7.754-20.681-18.047
						c-30.625-209.482,72.419-301.484,136.568-337.681c15.976-9.014,35.029-8.887,50.969,0.347
						c15.942,9.238,25.532,25.713,25.657,44.072c0.195,28.916,12.644,61.958,35.056,93.047
						c37.522,52.046,44.16,92.163,44.424,93.848c0.835,5.308-0.391,10.737-3.423,15.176
						C1697.431,973.562,1520.414,976.277,1502.809,976.277z M1642.67,656.096c-1.335,0-2.827,0.317-4.392,1.206
						c-64.436,36.357-135.801,113.623-117.949,276.113c44.165-2.651,156.87-15.991,209.639-82.832
						c-3.601-12.197-12.949-37.334-34.981-67.896c-19.448-26.973-42.698-69.248-43.025-117.441
						c-0.029-4.512-2.903-6.851-4.614-7.842C1646.325,656.814,1644.672,656.096,1642.67,656.096z"/>
				</g>
			</g>
			<g>
				<g>
					<path style="fill:#000072;" d="M2323.11,976.277c-17.585,0-194.614-2.71-267.41-109.243c-3.032-4.438-4.258-9.868-3.423-15.176
						c0.264-1.685,6.902-41.797,44.421-93.848c22.412-31.089,34.863-64.136,35.056-93.047c0.125-18.359,9.719-34.834,25.662-44.072
						c15.935-9.233,34.985-9.36,50.967-0.347c64.148,36.196,167.192,128.198,136.565,337.681
						c-1.504,10.293-10.283,17.949-20.681,18.047C2324.035,976.277,2323.647,976.277,2323.11,976.277z M2095.954,850.584
						c52.764,66.836,165.457,80.181,209.636,82.832c17.854-162.49-53.511-239.756-117.947-276.113
						c-3.916-2.212-7.366-0.884-9.07,0.102c-1.711,0.991-4.587,3.33-4.617,7.842c-0.325,48.189-23.577,90.464-43.025,117.441
						C2108.903,813.25,2099.555,838.387,2095.954,850.584z"/>
				</g>
			</g>
			<g>
				<g>
					<path style="fill:#FFFFFF;" d="M2861.7,1245.146c-5.17,7.385-11.816,13.715-19.518,19.043
						c-62.88,43.31-199.297,20.204-241.604-19.043c0,0,57.658,128.873,57.658,227.203c0,98.171,81.185,179.514,105.029,321.576
						c0.053,0.211,0.053,0.368,0.105,0.58c0.422,2.426,0.791,4.907,1.161,7.439c1.108,7.279,2.11,14.981,2.901,22.999
						c15.615,152.928-32.442,432.355-624.635,454.511c-287.867,10.76-507.263-28.751-663.25-104.66
						c-2.374-1.16-4.748-2.322-7.122-3.535c-182.944-91.418-276.526-233.849-289.344-403.868
						c-23.738-315.404,115.316-508.687,115.316-508.687s-278.108,98.329-376.438,10.181c-12.608-11.342-17.883-26.323-16.67-43.837
						c2.163-31.598,25.479-71.426,64.41-112.151c107.139-112.203,332.812-231.95,562.652-210.269c0,0,15.14-9.391,42.94-22.736
						c102.181-48.954,375.488-150.924,698.752-34.711c11.605,4.168,23.211,8.598,34.922,13.346c0,0,213.645-27.114,393.371,88.201
						C2882.062,1061.991,2909.177,1177.306,2861.7,1245.146z"/>
				</g>
			</g>
			<g>
				<g>
					<path style="fill:#FFABBC;" d="M2463.255,990.779c0,0,74.606,81.389,105.127,159.386c0,0,158.598,76.302,201.382,27.13
						C2812.548,1128.123,2570.077,975.519,2463.255,990.779z"/>
				</g>
			</g>
			<g>
				<g>
					<path style="fill:#515B72;" d="M1738.406,1670.737c0,0-290.769,110.251-297.573,367.945
						c-1.372,51.275,10.972,95.165,31.598,132.565c-182.944-91.419-276.526-233.85-289.345-403.869
						c-23.738-315.403,115.316-508.687,115.316-508.687s-278.108,98.33-376.438,10.181
						c-98.329-88.2,250.941-400.176,610.393-366.256c0,0,15.14-9.39,42.94-22.735c0,0,319.94,9.178,411.518,338.086
						C2078.339,1546.928,1738.406,1670.737,1738.406,1670.737z"/>
				</g>
			</g>
			<g style="opacity:0.6;">
				<g>
					<path style="fill:#FFFFFF;" d="M2861.7,1245.146c-5.17,7.385-11.816,13.715-19.518,19.043
						c57.656-112.509-57.289-204.678-143.643-262.599c-110.041-73.799-249.622-87.409-382.03-82.187
						c-237.859-110.094-530.368-97.644-758.784,33.602c-242.29-21.997-496.66,85.565-649.324,278.583
						c-1.055-2.162-2.11-4.326-3.112-6.541c2.163-31.598,25.479-71.426,64.41-112.151
						c107.139-112.203,332.812-231.95,562.652-210.269c0,0,15.14-9.391,42.94-22.736c102.181-48.954,375.488-150.924,698.752-34.711
						c11.605,4.168,23.211,8.598,34.922,13.346c0,0,213.645-27.114,393.371,88.201
						C2882.062,1061.991,2909.177,1177.306,2861.7,1245.146z"/>
				</g>
			</g>
			<g>
				<g>
					<path style="fill:#FFABBC;" d="M1371.29,1056.908c0,0-35.607,81.389-54.259,130.561c0,0-240.775,93.258-293.339,44.086
						C971.128,1182.382,1225.468,1050.125,1371.29,1056.908z"/>
				</g>
			</g>
			<g>
				<g>
					<path style="fill:#000072;" d="M2050.939,2302.298c-237.4,0-432.402-36.411-580.62-108.54c-2.522-1.236-5-2.451-7.48-3.716
						c-182.847-91.372-286.914-237.007-300.794-421.079c-17.371-230.776,49.541-396.631,90.222-473.975
						c-88.865,24.624-264.876,60.869-344.387-10.405c-15.447-13.858-37.612-45.635-12.571-102.842
						c30.622-69.956,119.436-150.635,231.782-210.552c129.221-68.921,271.125-100.825,400.383-90.19
						c7.139-4.087,20.252-11.289,38.691-20.142c104.915-50.269,384.573-154.336,715.022-35.547
						c10.259,3.686,20.574,7.598,30.74,11.65c36.182-3.608,231.895-17.026,401.807,91.997
						c135.71,87.031,176.379,166.987,186.597,218.735c7.966,40.332,0.586,78.208-21.338,109.541c-0.002,0-0.002,0.005-0.005,0.005
						c-19.331,27.598-54.59,44.849-101.965,49.883c-44.473,4.746-95.476-2.095-135.796-16.25
						c17.073,48.022,38.115,119.736,38.115,181.465c0,45.464,19.954,88.618,43.057,138.584
						c23.286,50.361,49.68,107.446,61.79,180.107c0.43,2.466,0.83,5.132,1.228,7.866c1.23,8.076,2.253,16.187,3.02,23.965
						c11.326,110.938-17.549,209.702-83.508,285.542c-102.08,117.368-290.942,182.012-561.338,192.124
						C2112.028,2301.707,2081.139,2302.298,2050.939,2302.298z M1298.398,1237.586c6.511,0,12.82,3.022,16.885,8.442
						c5.535,7.378,5.635,17.495,0.249,24.985c-1.328,1.855-134.229,191.528-111.406,494.78
						c12.703,168.452,108.743,302.129,277.737,386.577c2.427,1.24,4.695,2.348,6.963,3.457
						c160.735,78.218,380.525,112.695,653.188,102.53c258.274-9.663,436.951-69.434,531.072-177.652
						c58.943-67.773,83.625-153.105,73.362-253.633c-0.703-7.114-1.633-14.482-2.771-21.968c-0.361-2.471-0.698-4.756-1.089-6.992
						c-11.199-67.197-36.326-121.538-58.494-169.482c-24.146-52.222-46.953-101.548-46.953-156.294
						c0-92.583-55.261-217.339-55.82-218.589c-4.092-9.155-1.174-19.927,6.978-25.767c8.145-5.83,19.282-5.142,26.636,1.685
						c23.901,22.173,94.497,42.207,157.629,35.493c34.382-3.657,59.902-15.063,71.855-32.124l0,0
						c15.178-21.689,20.198-48.374,14.512-77.168c-12.2-61.772-71.855-129.741-167.981-191.387
						c-170.847-109.624-377.278-85.288-379.338-85.034c-3.577,0.464-7.224-0.02-10.564-1.377
						c-11.24-4.556-22.725-8.945-34.133-13.042c-315.459-113.408-582.383-14.082-682.5,33.882
						c-26.214,12.583-40.808,21.558-40.952,21.65c-3.909,2.412-8.521,3.511-13.088,3.062
						c-122.954-11.592-259.131,18.516-383.42,84.805c-102.793,54.824-186.394,129.497-212.983,190.239
						c-10.977,25.073-10.276,43.413,2.085,54.497c73.015,65.464,281.24,11.826,355.315-14.365
						C1293.674,1237.981,1296.049,1237.586,1298.398,1237.586z M2861.706,1245.135h0.049H2861.706z"/>
				</g>
			</g>
			<g>
				<g>
					<path style="fill:#FFABBC;" d="M2142.802,2279.441c-287.867,10.762-507.263-28.75-663.25-104.66
						c-25.057-41.568-38.72-87.304-38.72-136.099c0-230.367,304.378-440.69,679.919-469.703
						c298.84-23.105,552.682,75.594,643.785,232.952C2786.587,1947.738,2766.119,2256.125,2142.802,2279.441z"/>
				</g>
			</g>
			<g style="opacity:0.6118;">
				<g>
					<path style="fill:#FFFFFF;" d="M1466.399,2154.392c-41.918-88.036-25.025-196.251,25.967-279.361
						c50.992-83.11,131.87-143.978,217.7-190.245c234.157-126.222,519.516-153.822,773.523-74.814
						c74.868,23.287,148.823,56.64,203.796,112.546c54.973,55.906,88.143,137.802,70.226,214.133
						c29.409-92.393-68.982-175.064-153.743-226.514c-207.58-126.001-597.314-104.797-846.203,20.342
						C1558.881,1830.426,1462.805,1971.514,1466.399,2154.392z"/>
				</g>
			</g>
			<g>
				<g>
					<path style="fill:#000072;" d="M2050.942,2302.298c-237.4,0-432.405-36.411-580.623-108.54
						c-3.665-1.782-6.733-4.59-8.838-8.081c-27.703-45.962-41.75-95.415-41.75-146.997c0-118.559,73.955-234.946,208.24-327.72
						c131.443-90.811,305.872-148.706,491.155-163.022c299.297-23.101,565.986,74.688,663.672,243.423
						c1.323,2.285,2.207,4.805,2.603,7.417c12.402,82.012,9.482,201.147-74.858,302.993
						c-100.684,121.582-291.433,188.452-566.951,198.755l0,0C2112.028,2301.707,2081.139,2302.298,2050.942,2302.298z
						 M2142.802,2279.441h0.049H2142.802z M1494.491,2158.558c160.254,76.299,378.086,109.868,647.522,99.8l0,0
						c262.993-9.839,443.337-71.577,536.023-183.501c73.049-88.213,76.643-192.461,66.221-265.781
						c-91.423-152.881-340.54-240.864-621.88-219.058c-364.17,28.135-660.444,229.404-660.444,448.662
						C1461.933,2080.496,1472.883,2120.794,1494.491,2158.558z"/>
				</g>
			</g>
			<g>
				<g>
					<path style="fill:#000072;" d="M1076.801,1267.088c-39.368,0-57.066-10.342-67.522-20.122
						c-13.999-13.096-17.485-31.367-9.565-50.137c31.035-73.555,246.843-166.855,372.559-161.001
						c6.938,0.322,13.274,4.043,16.941,9.941c3.667,5.903,4.194,13.232,1.409,19.595c-0.354,0.811-35.613,81.479-53.862,129.59
						c-2.124,5.596-6.526,10.029-12.107,12.192c-2.507,0.967-62.126,23.96-129.324,41.24
						C1142.092,1262.078,1104.198,1267.088,1076.801,1267.088z M1037.795,1215.833c0.081,0.088,0.183,0.19,0.313,0.313
						c25.776,24.111,154.424-4.258,262.605-45.029c11.499-29.565,27.188-66.763,38.179-92.422
						c-98.735,8.081-236.855,67.388-287.046,117.178C1039.758,1207.864,1038.036,1214.295,1037.795,1215.833z"/>
				</g>
			</g>
			<g>
				<g>
					<path style="fill:#000072;" d="M2720.864,1214.768c-62.556,0-141.284-35.801-161.628-45.591
						c-4.807-2.31-8.557-6.357-10.503-11.323c-28.689-73.32-100.317-152.036-101.038-152.822
						c-5.283-5.771-6.943-13.994-4.304-21.362c2.637-7.368,9.133-12.671,16.88-13.779c95.186-13.604,287.69,92.017,327.329,164.868
						c15.781,29.004,5.574,47.778-1.917,56.387C2770.646,1208.426,2747.182,1214.768,2720.864,1214.768z M2584.802,1134.558
						c58.423,26.763,147.542,52.925,168.884,29.067c0.068-2.891-3.601-13.774-21.775-32.119
						c-48.586-49.058-149.888-103.789-221.724-117.485C2533.91,1044.319,2565.539,1089.187,2584.802,1134.558z"/>
				</g>
			</g>
			<g>
				<g style="opacity:0.2;">
					<g>
						<path style="fill:#000072;" d="M1186.952,1585.363c0.293-2.434,0.544-4.927,0.854-7.339
							c-3.077,43.001-3.339,89.246,0.365,138.466c12.819,170.019,106.401,312.449,289.344,403.867
							c2.374,1.213,4.748,2.375,7.122,3.535c155.988,75.91,375.383,115.421,663.25,104.66
							c468.12-17.514,596.198-195.78,621.617-345.252c0.691-20.773-0.242-40.441-2.072-58.359
							c-0.791-8.018-1.793-15.72-2.901-22.999c-0.369-2.532-0.738-5.012-1.16-7.439c-0.053-0.211-0.053-0.369-0.105-0.58
							c-48.532,94.848-130.614,168.173-223.668,215.65c-104.238,53.174-221.716,75.962-338.456,82.82
							c-203.517,11.922-409.672-23.528-597.469-102.814c-83.612-35.291-165.905-81.079-221.822-152.505
							c-90.153-115.264-95.481-276.631-66.467-420.064c23.634-116.834,66.973-228.979,95.776-344.473
							c8.705-34.906-27.13-64.41-59.597-48.916c-33.746,16.104-66.615,34.424-99.956,51.399
							c-57.921,29.489-119.641,55.548-184.579,57.446c-33.129,0.95-67.364-5.538-97.327-19.57
							c-60.454,63.302-83.19,124.178-47.741,155.987c98.33,88.149,376.438-10.18,376.438-10.18S1211.731,1379.325,1186.952,1585.363
							z"/>
					</g>
				</g>
			</g>
			<g>
				<g>
					
						<ellipse transform="matrix(0.2298 -0.9732 0.9732 0.2298 -121.9873 3266.1362)" style="fill:#000072;" cx="2002.476" cy="1710.137" rx="37.727" ry="37.727"/>
				</g>
			</g>
			<g>
				<g>
					
						<ellipse transform="matrix(0.9983 -0.0586 0.0586 0.9983 -95.307 138.9965)" style="fill:#000072;" cx="2320.804" cy="1693.501" rx="32.202" ry="38.245"/>
				</g>
			</g>
			<g>
				<g>
					<path style="fill:#000072;" d="M2090.17,2001.624c-8.389,0-17.104-0.508-26.187-1.606c-9.463-1.123-19.197-2.915-28.879-5.322
						c-45.447-11.289-84.077-33.54-114.814-66.138c-34.624-36.763-46.272-73.765-46.75-75.322
						c-3.425-11.138,2.827-22.944,13.965-26.367c11.133-3.442,22.947,2.827,26.372,13.965c0.066,0.2,9.587,29.541,37.129,58.779
						c25.083,26.606,56.807,44.819,94.28,54.126c7.979,1.982,15.957,3.457,23.723,4.38c85.652,10.356,131.646-45.454,133.562-47.837
						c7.278-9.043,20.532-10.557,29.614-3.325c9.084,7.231,10.659,20.396,3.477,29.517
						C2233.39,1939.358,2183.2,2001.624,2090.17,2001.624z"/>
				</g>
			</g>
			<g>
				<g>
					<path style="fill:#000072;" d="M1985.673,1848.363c-13.597,0.078-27.379-0.165-40.137,0.636
						c-12.807,0.745-25.003,2.338-35.614,5.656c-10.572,3.446-19.552,7.988-27.172,15.162c-7.882,6.952-14.243,16.931-21.008,28.641
						l-0.389,0.674c-3.076,5.325-9.887,7.149-15.213,4.073c-3.409-1.97-5.385-5.544-5.557-9.205
						c-0.316-8.021,0.596-16.189,2.982-24.357c2.258-8.153,6.217-16.188,11.573-23.425c10.539-14.853,27.42-24.882,44.006-29.278
						c16.758-4.509,33.383-4.228,48.841-1.522c15.546,2.968,29.87,8.036,43.319,16.766c4.074,2.645,5.233,8.092,2.589,12.166
						c-1.662,2.56-4.431,3.97-7.27,4.007L1985.673,1848.363z"/>
				</g>
			</g>
			<g>
				<g>
					<path style="fill:#98C45E;" d="M2093.057,2224.052c-108.511-110.779-104.554-217.021-104.554-217.021
						c-131.722,131.089-250.097,164.216-250.097,164.216c45.947-134.834,138.527-216.651,197.24-257.166
						c22.63,24.002,56.128,48.11,104.554,60.138c9.126,2.268,17.883,3.851,26.323,4.853
						C2110.518,2085.525,2093.057,2224.052,2093.057,2224.052z"/>
				</g>
			</g>
			<g>
				<g>
					<path style="fill:#000072;" d="M2093.058,2245.154c-5.581,0-11.04-2.217-15.076-6.338
						c-70.952-72.432-96.472-143.311-105.593-187.446c-121.084,109.253-223.64,138.896-228.298,140.2
						c-7.542,2.109-15.632-0.132-21.016-5.82c-5.381-5.694-7.17-13.896-4.644-21.309c48.884-143.452,149.565-229.317,205.229-267.73
						c8.577-5.918,20.186-4.697,27.339,2.896c25.088,26.611,56.812,44.824,94.287,54.136c7.981,1.982,15.962,3.452,23.721,4.375
						c7.588,0.898,14.097,5.83,17.017,12.891c45.601,110.347,28.708,249.8,27.966,255.679c-1.013,8.032-6.528,14.775-14.202,17.358
						C2097.585,2244.793,2095.312,2245.154,2093.058,2245.154z M1988.508,1985.926c2.854,0,5.732,0.581,8.455,1.772
						c7.942,3.477,12.949,11.455,12.627,20.117c-0.022,0.771-1.194,76.221,65.581,163.53c0.928-45.327-2.239-113.862-23.872-173.208
						c-5.376-0.947-10.786-2.095-16.182-3.438c-39.148-9.727-73.227-27.578-101.563-53.159
						c-46.064,34.258-113.604,96.753-157.427,192.041c44.731-20.844,118.843-63.237,197.49-141.509
						C1977.656,1988.054,1983.039,1985.926,1988.508,1985.926z"/>
				</g>
			</g>
			<g style="opacity:0.2;">
				<g>
					<path style="fill:#39005E;" d="M2777.487,1162.915c-64.498-105.124-185.951-172.777-309.283-172.279
						c21.434,33.242,45,68.325,81.451,83.678c18.727,7.887,39.313,9.814,59.334,13.286
						C2663.51,1097.053,2715.878,1118.723,2777.487,1162.915z"/>
				</g>
			</g>
			<g>
				<g>
					<g>
						
							<ellipse transform="matrix(0.0539 -0.9985 0.9985 0.0539 224.9828 3143.3628)" style="fill:#000072;" cx="1771.277" cy="1452.956" rx="137.287" ry="102.755"/>
					</g>
				</g>
				<g>
					<g>
						
							<ellipse transform="matrix(0.0539 -0.9985 0.9985 0.0539 298.1233 3151.7988)" style="fill:#FFFFFF;" cx="1812.298" cy="1418.577" rx="54.418" ry="32.252"/>
					</g>
				</g>
				<g style="opacity:0.35;">
					<g>
						
							<ellipse transform="matrix(0.9021 -0.4315 0.4315 0.9021 -482.2144 891.5512)" style="fill:#FFFFFF;" cx="1723.799" cy="1508.537" rx="17.43" ry="38.731"/>
					</g>
				</g>
			</g>
			<g>
				<g>
					<g>
						
							<ellipse transform="matrix(0.9985 -0.0539 0.0539 0.9985 -72.9591 131.3027)" style="fill:#000072;" cx="2398.346" cy="1418.577" rx="102.755" ry="137.287"/>
					</g>
				</g>
				<g>
					<g>
						
							<ellipse transform="matrix(0.9985 -0.0539 0.0539 0.9985 -71.1653 129.0407)" style="fill:#FFFFFF;" cx="2357.326" cy="1384.198" rx="32.252" ry="54.418"/>
					</g>
				</g>
				<g style="opacity:0.35;">
					<g>
						
							<ellipse transform="matrix(0.4315 -0.9021 0.9021 0.4315 60.5479 3044.3982)" style="fill:#FFFFFF;" cx="2445.825" cy="1474.158" rx="38.731" ry="17.43"/>
					</g>
				</g>
			</g>
			<g style="opacity:0.2;">
				<g>
					<path style="fill:#000072;" d="M1363.492,3342.246c-0.053,9.127-0.422,18.463-1.214,28.012c0,0-46.949-67.786-110.251-70.053
						c-63.302-2.269-106.19,122.067-270.143-29.383c0,0-68.736,7.596-131.036-8.546c-22.262-24.371-37.56-55.02-43.31-87.516
						c-4.431-24.897-2.427-53.173,14.823-71.689c9.759-10.55,23.263-16.67,35.133-24.793c11.869-8.124,22.947-19.993,23.317-34.342
						c0.211-9.443-4.009-17.62-9.39-25.585c31.915-12.924,57.711-18.199,57.711-18.199s37.454,58.502,76.543,89.046
						c0,0-144.751,28.959-153.825,66.836c-8.282,34.921,117.321,33.866,137.472,33.444c4.484,17.461,18.569,32.285,35.08,40.303
						c20.151,9.865,43.309,11.341,65.729,11.289c22.42-0.104,45.156-1.529,67.1,3.113c-24.529-21.312-37.559-55.073-33.656-87.305
						c17.566,32.179,53.596,49.376,88.412,61.034c34.816,11.605,71.848,20.361,100.44,43.362
						C1338.013,3281.846,1353.258,3310.7,1363.492,3342.246z"/>
				</g>
			</g>
			<g>
				<g>
					<g>
						<path style="fill:#FFFFFF;" d="M3024.281,995.81c-24.018-39.296-35.86-86.468-30.793-135.818
							c12.299-119.782,119.371-206.915,239.154-194.617c119.782,12.298,206.915,119.371,194.617,239.154
							s-119.371,206.915-239.154,194.617c-33.317-3.421-64.096-14.193-90.924-30.513l-100.896,22.628L3024.281,995.81z"/>
					</g>
				</g>
				<g style="opacity:0.5;">
					<g>
						<g>
							<path style="fill:#FFFFFF;" d="M3228.359,707.088c-111.894-11.489-212.671,63.798-235.489,171.404
								c-0.027-7.686,0.304-15.441,1.107-23.259c12.299-119.782,119.371-206.915,239.153-194.617
								c119.782,12.298,206.915,119.371,194.617,239.154c-0.806,7.852-2.043,15.555-3.64,23.107
								C3423.685,812.833,3340.289,718.58,3228.359,707.088z"/>
						</g>
					</g>
				</g>
				<g>
					<g>
						<path style="fill:#000072;" d="M3210.82,1119.49c-8.188,0-16.418-0.42-24.673-1.27c-32.773-3.364-63.73-13.184-92.144-29.224
							l-93.523,20.972c-6.626,1.484-13.545-0.645-18.188-5.596c-4.644-4.956-6.321-11.997-4.409-18.511l25.664-87.5
							c-24.124-42.808-34.185-91.133-29.136-140.327c6.472-63.027,37.1-119.766,86.243-159.756
							c49.143-39.995,110.93-58.467,173.945-51.982c130.112,13.359,225.095,130.083,211.736,260.19
							c-6.472,63.027-37.1,119.761-86.243,159.756C3317.387,1100.994,3265.136,1119.485,3210.82,1119.49z M3097.179,1049.456
							c3.489,0,6.941,0.952,9.968,2.793c25.334,15.415,53.23,24.771,82.915,27.817c52.834,5.439,104.624-10.049,145.82-43.574
							c41.199-33.525,66.873-81.084,72.297-133.921c11.201-109.072-68.425-206.919-177.498-218.12
							c-52.847-5.444-104.624,10.049-145.82,43.574c-41.199,33.525-66.873,81.089-72.297,133.926
							c-4.48,43.643,5.229,86.47,28.079,123.857c2.822,4.614,3.562,10.205,2.039,15.396l-18.835,64.219l69.136-15.503
							C3094.372,1049.607,3095.778,1049.456,3097.179,1049.456z"/>
					</g>
				</g>
				<g style="opacity:0.3;">
					<g>
						<path style="fill:#000072;" d="M3023.058,993.716c59.718,50.511,141.988,72.631,223.685,52.298
							c90.603-22.55,157.36-91.543,181.371-175.278c0.574,11.103,0.316,22.388-0.855,33.792
							c-12.299,119.782-119.371,206.915-239.154,194.617c-33.317-3.421-64.095-14.193-90.924-30.513l-100.896,22.628l27.997-95.45
							C3023.86,995.12,3023.471,994.41,3023.058,993.716z"/>
					</g>
				</g>
				<g>
					<g>
						<path style="fill:#FF0068;" d="M3140.657,821.037L3140.657,821.037c18.868-18.868,49.46-15.487,68.328,3.381l2.937,2.937
							l2.937-2.937c18.868-18.868,49.46-22.249,68.328-3.381h0c18.868,18.868,18.868,49.46,0,68.328l-2.937,2.937l-59.322,59.321
							c-4.974,4.974-13.039,4.974-18.013,0l-59.322-59.321l-2.937-2.937C3121.788,870.497,3121.788,839.905,3140.657,821.037z"/>
					</g>
				</g>
			</g>
		</g>
	</g>
</g>
</svg>
